HIERARCHY
ROOT Hips
{
	OFFSET 0.000000 0.000000 0.000000 
	CHANNELS 6 Xposition Yposition Zposition Yrotation Xrotation Zrotation
	JOINT Spine
	{
		OFFSET 0.000000 0.072080 0.012321 
		CHANNELS 3 Xrotation Yrotation Zrotation
		JOINT Spine1
		{
			OFFSET 0.000000 0.126984 -0.001294 
			CHANNELS 3 Xrotation Yrotation Zrotation
			JOINT Spine2
			{
				OFFSET 0.000000 0.106559 -0.010096 
				CHANNELS 3 Xrotation Yrotation Zrotation
				JOINT Neck
				{
					OFFSET 0.000000 0.108417 -0.034017 
					CHANNELS 3 Xrotation Yrotation Zrotation
					JOINT Neck1
					{
						OFFSET 0.000000 0.033906 0.007241 
						CHANNELS 3 Xrotation Yrotation Zrotation
						JOINT Head
						{
							OFFSET 0.000000 0.031458 0.006707 
							CHANNELS 3 Xrotation Yrotation Zrotation
							End Site
							{
								OFFSET 0.000000 0.179920 0.000962 
							}
						}
					}
				}
				JOINT LeftShoulder
				{
					OFFSET 0.048002 0.079586 -0.029634 
					CHANNELS 3 Zrotation Xrotation Yrotation
					JOINT LeftArm
					{
						OFFSET 0.096243 -0.008695 -0.014012 
						CHANNELS 3 Zrotation Xrotation Yrotation
						JOINT LeftForeArm
						{
							OFFSET 0.216305 0.000000 0.000000 
							CHANNELS 3 Xrotation Zrotation Yrotation
							JOINT LeftHand
							{
								OFFSET 0.217764 0.000000 0.000000 
								CHANNELS 3 Zrotation Yrotation Xrotation
								JOINT LeftHandThumb1
								{
									OFFSET 0.018582 -0.007835 0.020476 
									CHANNELS 3 Zrotation Xrotation Yrotation
									JOINT LeftHandThumb2
									{
										OFFSET 0.026269 -0.007835 0.022186 
										CHANNELS 3 Zrotation Xrotation Yrotation
										JOINT LeftHandThumb3
										{
											OFFSET 0.035170 -0.010504 0.017018 
											CHANNELS 3 Zrotation Xrotation Yrotation
											End Site
											{
												OFFSET 0.020312 -0.007813 0.007813 
											}
										}
									}
								}
								JOINT LeftHandMiddle1
								{
									OFFSET 0.081749 0.004803 0.003358 
									CHANNELS 3 Zrotation Xrotation Yrotation
									JOINT LeftHandMiddle2
									{
										OFFSET 0.045251 0.000000 0.000000 
										CHANNELS 3 Zrotation Xrotation Yrotation
										JOINT LeftHandMiddle3
										{
											OFFSET 0.029009 0.000000 0.000000 
											CHANNELS 3 Zrotation Xrotation Yrotation
											End Site
											{
												OFFSET 0.017969 0.000000 0.000000 
											}
										}
									}
								}
								JOINT LeftHandIndex1
								{
									OFFSET 0.081207 0.004803 0.021137 
									CHANNELS 3 Zrotation Xrotation Yrotation
									JOINT LeftHandIndex2
									{
										OFFSET 0.043354 0.000000 0.000000 
										CHANNELS 3 Zrotation Xrotation Yrotation
										JOINT LeftHandIndex3
										{
											OFFSET 0.026493 0.000000 0.000000 
											CHANNELS 3 Zrotation Xrotation Yrotation
											End Site
											{
												OFFSET 0.019531 0.000000 0.000000 
											}
										}
									}
								}
								JOINT LeftHandRing1
								{
									OFFSET 0.080666 0.002509 -0.014652 
									CHANNELS 3 Zrotation Xrotation Yrotation
									JOINT LeftHandRing2
									{
										OFFSET 0.042541 0.000000 0.000000 
										CHANNELS 3 Zrotation Xrotation Yrotation
										JOINT LeftHandRing3
										{
											OFFSET 0.029009 0.000000 0.000000 
											CHANNELS 3 Zrotation Xrotation Yrotation
											End Site
											{
												OFFSET 0.015625 0.000000 0.000000 
											}
										}
									}
								}
								JOINT LeftHandPinky1
								{
									OFFSET 0.078227 -0.000612 -0.030993 
									CHANNELS 3 Zrotation Xrotation Yrotation
									JOINT LeftHandPinky2
									{
										OFFSET 0.028721 0.000000 0.000000 
										CHANNELS 3 Zrotation Xrotation Yrotation
										JOINT LeftHandPinky3
										{
											OFFSET 0.021963 0.000000 0.000000 
											CHANNELS 3 Zrotation Xrotation Yrotation
											End Site
											{
												OFFSET 0.022656 0.000000 0.000000 
											}
										}
									}
								}
							}
						}
					}
				}
				JOINT RightShoulder
				{
					OFFSET -0.047970 0.079586 -0.029634 
					CHANNELS 3 Zrotation Xrotation Yrotation
					JOINT RightArm
					{
						OFFSET -0.096274 -0.008695 -0.014012 
						CHANNELS 3 Zrotation Xrotation Yrotation
						JOINT RightForeArm
						{
							OFFSET -0.216305 0.000000 0.000000 
							CHANNELS 3 Xrotation Zrotation Yrotation
							JOINT RightHand
							{
								OFFSET -0.217764 0.000000 0.000000 
								CHANNELS 3 Zrotation Yrotation Xrotation
								JOINT RightHandThumb1
								{
									OFFSET -0.019670 -0.007318 0.019638 
									CHANNELS 3 Zrotation Xrotation Yrotation
									JOINT RightHandThumb2
									{
										OFFSET -0.025498 -0.008492 0.023179 
										CHANNELS 3 Zrotation Xrotation Yrotation
										JOINT RightHandThumb3
										{
											OFFSET -0.034504 -0.010705 0.016680 
											CHANNELS 3 Zrotation Xrotation Yrotation
											End Site
											{
												OFFSET -0.020312 -0.007813 0.007813 
											}
										}
									}
								}
								JOINT RightHandIndex1
								{
									OFFSET -0.081770 0.003825 0.021187 
									CHANNELS 3 Zrotation Xrotation Yrotation
									JOINT RightHandIndex2
									{
										OFFSET -0.042006 0.000000 0.000000 
										CHANNELS 3 Zrotation Xrotation Yrotation
										JOINT RightHandIndex3
										{
											OFFSET -0.026449 0.000000 0.000000 
											CHANNELS 3 Zrotation Xrotation Yrotation
											End Site
											{
												OFFSET -0.020312 0.000000 0.000000 
											}
										}
									}
								}
								JOINT RightHandMiddle1
								{
									OFFSET -0.084059 0.003825 0.003342 
									CHANNELS 3 Zrotation Xrotation Yrotation
									JOINT RightHandMiddle2
									{
										OFFSET -0.043881 0.000000 0.000000 
										CHANNELS 3 Zrotation Xrotation Yrotation
										JOINT RightHandMiddle3
										{
											OFFSET -0.029191 0.000000 0.000000 
											CHANNELS 3 Zrotation Xrotation Yrotation
											End Site
											{
												OFFSET -0.017969 0.000000 0.000000 
											}
										}
									}
								}
								JOINT RightHandRing1
								{
									OFFSET -0.081798 0.003030 -0.015127 
									CHANNELS 3 Zrotation Xrotation Yrotation
									JOINT RightHandRing2
									{
										OFFSET -0.042198 0.000000 0.000000 
										CHANNELS 3 Zrotation Xrotation Yrotation
										JOINT RightHandRing3
										{
											OFFSET -0.026497 0.000000 0.000000 
											CHANNELS 3 Zrotation Xrotation Yrotation
											End Site
											{
												OFFSET -0.017188 0.000000 0.000000 
											}
										}
									}
								}
								JOINT RightHandPinky1
								{
									OFFSET -0.077902 -0.000930 -0.030891 
									CHANNELS 3 Zrotation Xrotation Yrotation
									JOINT RightHandPinky2
									{
										OFFSET -0.028538 0.000000 0.000000 
										CHANNELS 3 Zrotation Xrotation Yrotation
										JOINT RightHandPinky3
										{
											OFFSET -0.021734 0.000000 0.000000 
											CHANNELS 3 Zrotation Xrotation Yrotation
											End Site
											{
												OFFSET -0.022656 0.000000 0.000000 
											}
										}
									}
								}
							}
						}
					}
				}
			}
		}
	}
	JOINT LeftUpLeg
	{
		OFFSET 0.075264 -0.025573 0.000000 
		CHANNELS 3 Xrotation Yrotation Zrotation
		JOINT LeftLeg
		{
			OFFSET 0.000000 -0.326016 -0.013516 
			CHANNELS 3 Xrotation Yrotation Zrotation
			JOINT LeftFoot
			{
				OFFSET 0.000098 -0.306172 -0.006623 
				CHANNELS 3 Xrotation Yrotation Zrotation
				JOINT LeftToeBase
				{
					OFFSET -0.001432 -0.095259 0.064705 
					CHANNELS 3 Xrotation Yrotation Zrotation
					End Site
					{
						OFFSET 0.000000 0.000000 0.079438 
					}
				}
			}
		}
	}
	JOINT RightUpLeg
	{
		OFFSET -0.075264 -0.025573 0.000000 
		CHANNELS 3 Xrotation Yrotation Zrotation
		JOINT RightLeg
		{
			OFFSET 0.000000 -0.326016 -0.013516 
			CHANNELS 3 Xrotation Yrotation Zrotation
			JOINT RightFoot
			{
				OFFSET 0.000098 -0.306172 -0.006623 
				CHANNELS 3 Xrotation Yrotation Zrotation
				JOINT RightToeBase
				{
					OFFSET -0.001432 -0.095259 0.064705 
					CHANNELS 3 Xrotation Yrotation Zrotation
					End Site
					{
						OFFSET 0.000025 0.000000 0.079438 
					}
				}
			}
		}
	}
}
MOTION
Frames: 5
Frame Time: 0.033333
-0.000513 0.646111 -0.000515 -177.838104 0.101700 0.557200 15.703000 2.128800 0.385800 2.587600 0.521700 0.458000 2.590800 0.496300 0.450400 0.862600 -0.755200 0.884800 -0.000000 0.000000 -0.000000 -27.912800 -3.684200 -5.537000 -16.140100 1.722600 -4.008100 -68.886002 -2.502300 31.672800 -0.000000 -0.000000 -55.431599 -2.711000 6.637500 10.586400 8.022800 2.294000 6.150500 -7.393500 10.001900 9.515500 20.248600 -22.824699 -18.272699 -35.002102 0.003200 0.307200 -31.301399 0.002200 -0.007800 -20.641800 0.001000 -0.005300 -25.661900 0.003700 -3.435600 -29.325100 0.001900 -0.007400 -16.695101 0.000600 -0.004300 -36.545601 0.003400 4.270500 -41.345200 0.003700 -0.009900 -15.854400 0.000600 -0.004100 -33.199501 -0.128100 1.512000 -28.580000 0.001800 -0.007200 -19.848801 0.000900 -0.005100 18.307301 2.207900 5.346700 55.040001 2.253100 -4.761200 0.000000 -0.000000 40.557598 -1.367900 4.044700 17.484600 -3.824900 -2.713200 -4.257200 0.092800 9.000300 -15.027400 -17.157400 -9.625400 19.562700 20.020100 0.000600 1.916100 41.113098 0.002000 0.005200 18.580900 0.000400 0.002500 33.056999 0.001500 -0.856900 38.160400 0.001700 0.004900 14.637600 0.000300 0.002000 39.376499 0.002000 -3.844100 33.896900 0.001300 0.004400 17.175200 0.000400 0.002300 42.295799 0.002300 0.299500 38.474998 0.001700 0.004900 26.143000 0.000800 0.003500 -49.190701 -2.771800 4.361300 91.307198 9.854100 2.422400 -8.030000 2.312000 -5.065000 3.890200 0.000000 0.000000 -39.967098 -2.047500 -7.521400 73.405296 6.286300 -1.148400 -22.101900 -0.154100 0.618300 -11.645300 0.000000 -0.000000 
0.004606 0.643287 0.065148 -177.727402 -1.156900 -0.413300 15.197800 0.096800 1.064200 2.514700 -0.053600 0.654100 2.513500 -0.080600 0.664200 1.033800 -0.413000 0.168300 -0.000000 0.000000 -0.000000 -26.405001 -0.812500 -5.763000 -15.430200 1.708900 -4.165700 -66.191399 -1.142500 25.555901 -0.000000 0.000000 -65.328598 -0.514800 4.075900 10.710700 8.022800 2.294000 6.150500 -7.014500 9.885700 8.730800 18.937599 -23.009001 -17.094999 -36.558998 0.003500 0.068100 -32.551102 0.002400 -0.008100 -20.269899 0.000900 -0.005200 -27.000601 0.258900 -3.916400 -31.243900 0.002200 -0.007800 -15.976100 0.000600 -0.004100 -38.370499 0.003800 4.028500 -43.012100 0.004000 -0.010300 -15.312800 0.000500 -0.004000 -34.711498 -0.034900 1.129000 -29.065500 0.001900 -0.007300 -19.347700 0.000900 -0.005000 18.832701 2.197100 5.135300 58.093102 1.452000 -16.853399 -0.000000 -0.000000 41.733898 2.026100 1.609900 16.598700 -3.824900 -2.713200 -4.257200 -5.068000 5.488500 -5.898900 -19.274300 -9.357400 21.619801 18.985701 0.221200 2.146600 40.591999 0.001900 0.005100 18.357500 0.000400 0.002500 31.842699 0.001400 -0.854000 38.748299 0.001700 0.004900 14.156000 0.000200 0.001900 38.370300 0.001900 -5.625100 36.211498 0.001500 0.004700 16.935900 0.000300 0.002300 44.377300 -0.996400 -1.038100 42.528400 0.002100 0.005300 26.709200 0.000800 0.003600 -38.950001 -2.451300 8.252400 97.566704 8.583800 2.252200 -9.975700 0.830300 -6.843000 3.838900 -0.000000 0.000000 -44.050900 -1.820500 -6.262900 70.925697 6.122500 -0.694200 -17.664000 -0.314300 1.558100 -9.637400 0.000000 -0.000000 
0.008151 0.652817 0.130387 -173.537903 -3.133700 -1.078600 15.011700 -4.752600 1.900700 2.405900 -1.387600 0.618300 2.399500 -1.399900 0.660800 1.519500 -0.133200 -0.989000 -0.000000 0.000000 -0.000000 -24.493500 1.918000 -6.796800 -14.564200 1.919900 -5.430900 -60.055000 0.208900 22.754700 0.000000 0.000100 -83.178497 3.922800 1.542000 14.893900 8.022800 2.294000 6.150500 -7.333900 9.984900 9.394100 13.057100 -22.695999 -12.428800 -41.626099 0.004400 0.153300 -33.332401 0.002500 -0.008300 -20.021500 0.000900 -0.005100 -35.005299 0.578600 -4.494100 -35.395401 0.002800 -0.008700 -15.441500 0.000500 -0.004000 -41.678699 0.004400 2.866500 -46.620399 0.004700 -0.010900 -14.903400 0.000500 -0.003900 -36.871700 0.003600 -1.464700 -30.986300 0.002100 -0.007700 -19.377100 0.000900 -0.005000 17.765900 1.498000 2.634100 61.383598 1.323200 -29.992201 0.000000 -0.000000 51.559200 4.313900 0.778300 15.211700 -3.824900 -2.713200 -4.257200 -8.836600 2.659800 1.772200 -16.868500 -9.545200 20.262899 15.940700 0.405100 2.334700 39.880699 0.001800 0.005100 18.506100 0.000400 0.002500 28.096500 0.001100 -1.150200 38.220402 0.001700 0.004900 13.129800 0.000200 0.001800 33.074799 0.001400 -8.357300 38.922699 0.001800 0.005000 16.897301 0.000300 0.002300 40.712299 -2.746000 -3.376300 44.518799 0.002300 0.005500 27.315100 0.000900 0.003600 -27.501200 -3.816700 9.023800 96.468498 5.928900 3.375900 -7.364600 1.048700 -9.236200 4.849200 0.000000 0.000000 -44.032398 -3.395500 -8.118300 62.968300 5.564800 0.643700 -9.272200 -0.284300 2.023400 -7.008400 0.000000 -0.000000 
0.008930 0.669451 0.203494 -169.512299 -4.072700 -1.759600 15.050000 -9.106300 2.438700 2.288200 -2.571500 0.381700 2.291800 -2.564600 0.446500 1.822300 -0.004800 -2.270700 -0.000000 0.000000 -0.000000 -22.453501 3.899200 -8.322500 -13.634100 2.265800 -7.482100 -51.637501 -1.125400 18.854000 -0.000000 0.000100 -101.016998 7.825500 1.890200 19.806499 8.022800 2.294000 6.150500 -7.427800 10.001900 9.589500 10.538900 -22.100599 -10.198500 -43.403301 0.004700 -0.235200 -32.738201 0.002400 -0.008100 -19.666599 0.000900 -0.005000 -39.631302 0.699300 -4.712900 -36.726700 0.003000 -0.009000 -15.115300 0.000500 -0.003900 -41.654800 0.004400 2.090400 -47.809200 0.004900 -0.011100 -14.667900 0.000500 -0.003800 -36.562000 0.003500 -3.070000 -31.320400 0.002200 -0.007800 -19.535000 0.000900 -0.005000 15.157200 0.996300 1.038300 64.708900 -0.863500 -39.694302 0.000000 -0.000000 61.154900 5.705400 -1.902400 13.504600 -3.824900 -2.713200 -4.257200 -9.139300 2.453400 2.456800 -15.362100 -9.721700 19.032499 15.896900 0.504400 2.432400 38.124199 0.001700 0.004900 18.571600 0.000400 0.002500 27.705900 0.001100 -1.030700 36.913799 0.001600 0.004800 12.205500 0.000200 0.001700 31.891899 0.001300 -8.248300 38.651600 0.001700 0.004900 16.899401 0.000300 0.002300 39.061100 -3.081200 -3.811700 44.369701 0.002300 0.005500 27.466900 0.000900 0.003600 -19.711100 -5.267800 9.011600 91.628098 2.396700 4.832900 -5.113800 1.060800 -10.352900 5.523600 -0.000000 0.000000 -42.306301 -4.941000 -10.534600 48.135201 4.638400 1.983900 5.743300 0.073800 5.272400 -7.294300 0.000000 -0.000000 
0.008137 0.683378 0.281177 -169.283905 -2.727600 -1.984900 13.072000 -10.014300 1.544900 2.700100 -2.776500 0.261600 2.711500 -2.766500 0.307300 1.764400 -0.054400 -3.317100 -0.000000 0.000000 -0.000000 -21.812599 4.619700 -9.340600 -13.334000 2.352300 -8.074100 -41.755600 -4.269500 10.906600 -0.000000 0.000000 -113.964798 8.937000 3.133000 22.767200 8.022800 2.294000 6.150500 -7.811200 10.001900 10.379000 10.312900 -22.056700 -10.037100 -41.330200 0.004300 -0.545000 -31.850800 0.002300 -0.007900 -19.455000 0.000800 -0.005000 -39.218300 0.607100 -4.539100 -36.373199 0.002900 -0.008900 -15.528400 0.000500 -0.004000 -39.367401 0.004000 2.288200 -47.308498 0.004800 -0.011000 -14.958200 0.000500 -0.003900 -35.421501 0.003300 -2.867300 -30.668301 0.002100 -0.007700 -18.811600 0.000800 -0.004800 13.689200 0.942700 1.086300 66.149399 -3.069100 -45.803600 -0.000000 0.000000 68.377296 7.918600 -4.366300 11.741000 -3.824900 -2.713200 -4.257200 -8.232700 3.209000 0.490300 -16.945000 -9.551400 20.347601 16.897400 0.570400 2.494900 36.503300 0.001600 0.004700 18.534000 0.000400 0.002500 28.955601 0.001200 -0.386400 35.489601 0.001500 0.004600 11.608800 0.000200 0.001600 33.823502 0.001500 -6.534400 36.726299 0.001600 0.004700 16.940100 0.000300 0.002300 40.031601 -1.802500 -2.099400 43.114101 0.002100 0.005400 27.374599 0.000900 0.003600 -16.222799 -4.866200 8.595700 85.130096 -2.403300 5.739900 -6.433300 1.328500 -10.752100 4.003200 0.000000 0.000000 -40.037899 -4.759700 -10.463000 26.406099 1.930900 1.684000 24.216200 2.240600 11.803900 0.079000 -0.000000 0.000000 
